<svg version="1.1" xmlns="http://www.w3.org/2000/svg" viewBox="0 0 418.6640625 448.244873046875" width="418.6640625" height="448.244873046875">
  <!-- svg-source:excalidraw -->
  
  <defs>
    <style class="style-fonts">
      @font-face {
        font-family: "Virgil";
        src: url("https://excalidraw.com/Virgil.woff2");
      }
      @font-face {
        font-family: "Cascadia";
        src: url("https://excalidraw.com/Cascadia.woff2");
      }
    </style>
  </defs>
  <rect x="0" y="0" width="418.6640625" height="448.244873046875" fill="#ffffff"></rect><g stroke-linecap="round" transform="translate(113.791015625 10) rotate(0 86.947265625 86.947265625)"><path d="M20.57 29.81 C20.57 29.81, 20.57 29.81, 20.57 29.81 M20.57 29.81 C20.57 29.81, 20.57 29.81, 20.57 29.81 M11.02 47.59 C20.22 33.88, 30.28 24.42, 37.14 20.24 M11.96 46.91 C19.47 36.79, 26.41 28, 34.94 18.09 M5.35 59.47 C19.2 41.45, 36.82 25.4, 50.19 9.26 M4.41 60.99 C13.39 51.03, 23.71 39.22, 48.39 10.01 M2.71 67.52 C22.44 46.01, 44.2 21.02, 56.32 6.59 M2 68.39 C22.7 43.64, 43.25 19.56, 56.3 6.92 M4.4 73.6 C15.21 61.51, 28.68 44.48, 63.52 4.73 M2.97 74.05 C16.81 57.57, 31.35 40.47, 63.54 6.28 M1.11 81.33 C23.71 57.86, 48.19 29.97, 68 1.93 M2.17 82.19 C20.7 59.83, 40.28 37.88, 68.97 2.81 M2.5 88.3 C28.82 59.07, 51.34 28.16, 77.63 2.9 M1.85 87.73 C29.69 55.95, 58.29 21.72, 77.04 1.32 M0.68 95.78 C23.53 68.96, 42.59 45.55, 81.99 1.68 M1.48 94.21 C24.35 66.82, 48.17 38.89, 83.27 0.92 M1.6 97.64 C23.14 76.62, 45.52 50.84, 89.28 1.87 M2.43 99.91 C30.79 66.87, 57.53 34.6, 87.33 1.42 M4.06 103.8 C30.99 74.83, 54.82 44.84, 93.67 1.54 M5.21 103.62 C24.3 78.39, 46.12 55.78, 91.72 1.39 M7.04 108.67 C28.02 80.15, 53 51.69, 96.26 2.42 M6.11 108.14 C34.19 74.52, 63.96 41.6, 96.99 3.73 M7.86 110.32 C30.24 88.29, 52.15 64.13, 101.78 5.38 M7.67 111.81 C35.95 78.01, 63.06 45.23, 101.73 4.19 M8.37 117.43 C28.53 95.1, 46.31 71.76, 104.81 5.55 M8.08 116.61 C32.13 90.22, 54.86 64.07, 105.1 4.83 M10.39 122.48 C43.35 79.31, 79.76 43.31, 109.22 5.81 M10.96 119.56 C47.14 76.84, 86.62 33.59, 109.47 6.69 M10.53 124.41 C40.15 95.25, 65.01 66.79, 113.63 8.21 M11.47 124.64 C44.6 87.72, 74.03 54.46, 114.29 7.4 M15.71 129.86 C36.35 101.18, 57.64 76.38, 119.65 7.16 M14.03 128.23 C50.45 89.48, 85.34 47.15, 119.45 7.66 M16.59 132.82 C43.95 98.99, 75.57 64.23, 123.91 9.87 M15.13 133.95 C53.69 90.31, 91.66 47.65, 121.75 9.81 M16.36 138.3 C46.88 102.82, 79.01 66.99, 128.25 11.26 M18.34 136.61 C53.61 94.41, 89.72 53.03, 126.27 12.04 M21.67 137.56 C62.67 93.14, 102.32 45.23, 131.23 11.68 M20.53 138.62 C62.84 89.3, 103.11 42.98, 130.18 14.29 M25.32 141.56 C60.29 98.61, 97.07 57.91, 134.92 15.1 M22.89 141.62 C58.07 103.27, 94.83 61.59, 132.83 15.63 M25.77 146.31 C54.59 114.12, 80.03 82.44, 136.33 18.27 M25.64 145.15 C52.68 115.39, 78.27 84.12, 137.45 17.7 M27.35 146.41 C67.16 102.46, 105.7 56.4, 141.67 22.19 M28.57 148.33 C66.44 105.25, 103.15 63.02, 140.71 21.36 M32.3 151.17 C59.05 116.68, 90.55 83.32, 144.37 22.25 M32.36 151.2 C64.25 116.17, 96.05 80.31, 142.97 23.07 M32.35 154.84 C69.73 114.77, 101.81 77.96, 146.65 24.47 M34.43 155.2 C58.34 125.14, 82.59 98.34, 147.22 24.32 M36.77 156.73 C64.08 124.24, 91.24 93.69, 149.61 27.67 M36.3 156.52 C73.55 113.28, 111.44 72.94, 149.34 28.05 M40.62 158.76 C76.47 116.7, 113.81 77.58, 154.78 31.63 M40.05 159.81 C71.16 123.37, 101.7 89.12, 153.01 30 M42.8 159.79 C85.65 115.2, 124.5 66.88, 156.83 32.83 M43.75 161.78 C79.82 120.59, 115.24 80.92, 154.71 32.69 M48.27 162.85 C86.24 118.77, 125.35 71.4, 157.79 35.32 M47.86 162.65 C90.5 113.13, 135.16 62.81, 157.15 35.52 M52.81 167.11 C89.91 118.11, 128.92 72.92, 157.86 41.23 M51.37 165.28 C76.09 135.56, 102.34 105.61, 160.41 41.45 M55.19 168.75 C94.11 123.24, 129.08 81.54, 161.5 45.15 M54.19 166.35 C77.55 141.2, 99.46 115.08, 161.31 44.63 M60.65 166.44 C88.98 133.18, 120.54 99.35, 161.65 47.6 M59.88 168.97 C83.74 140.73, 107.73 111.37, 163.92 48.13 M63.06 168.53 C102.98 124.75, 142.52 79.41, 167.81 51.2 M62.17 170.17 C91.15 136.57, 120.59 103.8, 166.89 51.23 M67.67 170.74 C101.48 135.36, 132.9 100.27, 170.25 54.12 M66.99 171.71 C92.63 141.96, 119.39 110.14, 167.95 55.2 M69.99 174.54 C105.32 132.83, 142.47 88.15, 168.79 58.02 M71.52 172.78 C99.02 140.06, 127.04 107.93, 169.99 58.36 M78.56 173.42 C114.2 131.16, 152.49 88.43, 169.59 64.23 M76.39 173.44 C96.84 149.41, 116.47 124.25, 170.13 64.55 M81.18 172.04 C113.16 135.19, 148.07 100.57, 169.97 69.66 M82.07 173.96 C107.35 141.59, 132.4 112.89, 171.78 70.23 M85.57 173.64 C117.41 135.56, 150.32 100.98, 172.59 74.03 M86.9 173.54 C108.56 146.39, 130.65 120.95, 171.16 75.92 M90.35 171.04 C115.84 146.57, 136.48 121.32, 170.91 79.57 M92.27 173.41 C111.13 149.76, 130.61 128.23, 172.02 81.12 M97.02 170.77 C114.26 149.58, 132.66 131.8, 174.66 85.88 M97.98 172.28 C118.24 149.43, 138.88 125.5, 173.34 85.43 M101.62 171.28 C127.09 147.89, 149.32 121.41, 175.35 90.22 M102.05 172.72 C124.04 149.12, 143.93 125.85, 174.22 92 M106.03 171.89 C131.88 145.83, 154.68 118.71, 176.35 97.6 M107.45 173.32 C131.98 144.23, 156.24 116.84, 174.14 95.88 M117.5 165.92 C136.83 145.75, 157.86 121.13, 171.18 104.81 M117.79 168.06 C132.93 152.48, 146.12 135.56, 172.63 105.25 M128.3 160.24 C144.93 143.62, 156.77 128.58, 170.75 116.01 M128.33 161.11 C136.57 152.71, 145.82 142.09, 168.69 115.23 M140.99 156.6 C144.56 146.67, 149.59 140.84, 165.7 123.24 M139.47 156.3 C147.94 145.23, 158.23 133.87, 166.49 123.62" stroke="#ced4da" stroke-width="0.5" fill="none"></path><path d="M85.38 -0.53 C96.58 -2.16, 109.14 2.39, 120.09 7.05 C131.04 11.71, 142.9 18.83, 151.06 27.44 C159.23 36.04, 165.32 47.5, 169.07 58.69 C172.81 69.88, 174.57 82.81, 173.52 94.59 C172.48 106.36, 168.54 119.2, 162.78 129.34 C157.03 139.48, 148.2 148.25, 138.98 155.44 C129.76 162.63, 118.83 169.59, 107.46 172.47 C96.09 175.36, 82.44 175.24, 70.75 172.74 C59.07 170.24, 46.92 164.31, 37.35 157.46 C27.79 150.61, 19.38 141.65, 13.34 131.64 C7.3 121.62, 2.78 108.99, 1.11 97.35 C-0.56 85.71, 0.13 73.02, 3.33 61.81 C6.54 50.6, 12.74 38.91, 20.34 30.08 C27.93 21.24, 37.85 13.98, 48.9 8.8 C59.95 3.63, 79.85 0.25, 86.63 -0.99 C93.4 -2.23, 89.38 -0.09, 89.57 1.37 M48.78 9.04 C58.25 2.62, 70.81 -0.42, 82.5 -1.1 C94.2 -1.79, 107.92 0.48, 118.96 4.93 C130 9.38, 140.74 17.15, 148.73 25.61 C156.72 34.07, 162.5 44.56, 166.87 55.68 C171.25 66.8, 175.55 80.75, 174.98 92.34 C174.41 103.93, 168.8 114.77, 163.44 125.21 C158.07 135.66, 151.68 147.27, 142.79 155.01 C133.89 162.75, 121.64 168.7, 110.08 171.64 C98.51 174.57, 85.31 174.78, 73.38 172.62 C61.45 170.46, 48.21 165.22, 38.48 158.67 C28.75 152.12, 21.41 142.99, 15 133.3 C8.59 123.62, 2.1 112.14, 0.02 100.54 C-2.07 88.95, -0.6 75.22, 2.5 63.73 C5.6 52.23, 11.04 40.41, 18.6 31.57 C26.16 22.73, 43.09 14.19, 47.87 10.67 C52.65 7.14, 46.54 9.33, 47.28 10.4" stroke="#000000" stroke-width="1" fill="none"></path></g><g transform="translate(176.1673066712275 84.96626449593452) rotate(0 24.58997344970703 12)"><text x="24.58997344970703" y="0" font-family="Virgil, Segoe UI Emoji" font-size="20px" fill="#000000" text-anchor="middle" style="white-space: pre;" direction="ltr" dominant-baseline="text-before-edge">Test</text></g><g stroke-linecap="round" transform="translate(234.76953125 212.119140625) rotate(0 86.947265625 86.947265625)"><path d="M12.14 41.03 C12.14 41.03, 12.14 41.03, 12.14 41.03 M12.14 41.03 C12.14 41.03, 12.14 41.03, 12.14 41.03 M9.86 52.72 C14.66 41.06, 21.66 33.86, 36.94 18.46 M9.21 51.11 C17.47 40.38, 25.34 31.25, 38.4 17 M5.5 60.35 C17.07 46.11, 33.6 30.98, 47.77 12.46 M5.69 61.11 C16.43 47.81, 29.02 33.16, 47.51 13.57 M1.16 69.64 C18.14 52.53, 33.07 35.7, 57.22 9.52 M1.04 71.61 C19.8 50.12, 39.86 27.71, 55.33 9.26 M4.19 77.22 C17.73 61.37, 33.2 42.76, 64.27 5.76 M2.33 75.81 C17.97 57.08, 34.85 37.96, 64.23 5.06 M3.96 80.65 C22.91 60.9, 40.88 36.02, 72.76 4.7 M2.7 82.89 C29.51 51.82, 53.84 22.26, 72.43 2.86 M3.79 87.13 C27.72 58.74, 52.63 30.5, 78.27 1.88 M3.48 87.92 C25.26 63.24, 46.78 37.19, 76.14 2.41 M4.57 93.85 C29.14 67.12, 52.2 39.47, 82.93 4.08 M3.08 92.52 C24.57 68.52, 47.26 41.55, 82.54 3.8 M6.27 97.29 C27.56 71.36, 49.61 44.71, 86.97 1.73 M4.67 97.47 C23.03 77.51, 39.99 57.42, 86.62 4.13 M3.5 105.06 C30.26 75.2, 53.85 48.28, 92.98 3.69 M4.96 104.81 C35.3 70.79, 64.79 36.83, 91.57 3.61 M4.32 111.67 C25.11 86.67, 45.22 64.93, 96.64 4.79 M3.29 110.89 C25.3 86.6, 45.11 62.91, 98.81 3.35 M4.37 114.86 C42.05 72.52, 79.13 29.68, 101.67 2.65 M6.88 114.97 C34.98 81.87, 64.54 47.69, 103.1 3.5 M7.89 119.21 C46.22 77.86, 83.59 34.18, 106.64 5.29 M8.17 120.13 C38.9 82.87, 68.54 48.44, 108.6 3.06 M11.76 121.62 C32.5 100.58, 51.77 74.37, 113.17 6.37 M10.02 123.04 C42.77 84.36, 75.92 47.13, 111.3 6.52 M12.45 128.2 C45.12 88.01, 78.95 49.16, 117.4 8.04 M10.86 126.08 C38.22 97.15, 63.23 68.31, 115.65 6.88 M12.76 129.77 C56.19 84.71, 96.21 35.62, 119.63 7.26 M14.72 131.2 C39.8 101.32, 65.29 71.67, 120.48 9.33 M16.82 134.7 C43.78 100.24, 71.87 66.72, 123.7 10.59 M16.39 133.97 C38.01 108.32, 61.25 81.6, 123.59 10.26 M17.46 135.74 C42.52 112.05, 69.74 82.73, 126.62 12.02 M18.03 136.73 C48.41 104.97, 77.79 69.66, 127.56 12.43 M19.19 142.79 C54.83 102.62, 90.58 60.3, 129.36 13.03 M20.36 142.63 C58.71 96.77, 97.18 52.74, 129.8 15.27 M21.64 145.76 C45.38 118.18, 67.23 89.72, 133.09 17.39 M21.34 144.76 C56.78 105.66, 91.8 63.01, 134.99 16.97 M23.79 149.82 C54.8 110.91, 88.17 76.06, 137.29 19.99 M24.58 148.74 C49.65 121.32, 72.78 95.83, 138.41 17.59 M26.81 151.56 C66.11 110.63, 102.7 66.85, 140.03 21.64 M27.44 151.03 C58.71 114.28, 91.22 78.84, 142.45 19.16 M32.24 151.44 C59.68 121.44, 87.44 88.9, 143.44 22.64 M31.4 152.84 C63.03 115.28, 94.14 80.36, 145.27 23.52 M36.89 154.44 C72.4 112.21, 108.57 71.37, 147.21 24.08 M34.2 154.9 C71.42 113.55, 107.45 73.09, 146.57 26.88 M36.93 156.33 C77.52 108.16, 121.53 60.27, 151.48 27.91 M38.15 157.11 C72.63 119.42, 107.63 79.37, 149.63 28.21 M39.52 159.47 C74.04 119.17, 110.38 77.87, 153.04 32.27 M40.92 160.6 C65.87 130.52, 91.81 102.66, 151.78 31.81 M44.24 162.18 C86.85 114.03, 126.67 67.86, 156.79 34.27 M45.28 162.32 C82.58 116.1, 122.75 71.04, 155.08 34.41 M46.7 166.5 C80.16 127.57, 115.29 86.83, 158.68 38.84 M47.86 165.18 C72.17 138.05, 95.53 109.54, 157.44 37.28 M50.64 168.5 C92.02 123.69, 127.97 76.5, 161.13 41.48 M51.53 167.59 C86.86 124.98, 124.62 83.8, 161.3 41.26 M56.83 168.63 C79.49 136.65, 107.23 106.51, 164.01 45.16 M55.41 168.08 C94.51 124.37, 131.19 81.39, 162.79 42.94 M59.92 170.28 C102 120.06, 143.27 70.52, 168 47.06 M60.11 169.14 C87.15 134.71, 117.32 101.7, 166.37 45.71 M63.32 171.29 C95.34 136.62, 121.54 104.39, 168.31 52.93 M63.64 169.08 C99.31 129.79, 134.26 88.59, 166.68 51.36 M67.34 171.33 C89.35 147.8, 109.91 121.61, 169.32 56.1 M67.9 170.58 C93.13 140.46, 120.93 110.69, 168.47 55.39 M71.39 172.17 C92.53 147.17, 112.6 124.6, 170.9 59.1 M72.06 171.35 C102.07 138.65, 131.45 104.64, 171.13 59.92 M75.51 171.5 C104.27 147.59, 126.62 117.95, 169.95 67.18 M78.3 173.13 C106.93 140.44, 135.22 107.4, 171.39 65.47 M83.24 174.99 C105.69 150.52, 124.61 123.88, 173.14 69.9 M81.88 174.14 C102.41 151.58, 122.11 128.82, 172.37 69.86 M86.43 174.37 C105.08 155.3, 125.06 134.11, 173.89 75.92 M86.22 174.34 C109.39 148.38, 131.4 123.79, 173.72 75.26 M94.78 172.99 C116.02 148.25, 136.8 122.86, 172.46 79.35 M93.65 173.32 C114.13 148.81, 135.92 123.54, 173.92 79.8 M98.08 170.84 C123.02 148.21, 145.12 119.23, 172.22 86.76 M99.81 172.62 C121.87 147, 144.5 121.03, 173.8 86.94 M103.02 170.45 C129.91 141.67, 155.64 113.18, 174.38 93.02 M105.72 171.86 C126.81 147.74, 147.17 122, 173.5 94.49 M110.64 170.1 C134.54 143.56, 158.39 116.47, 172.99 101.87 M111.5 171.28 C126.72 152.13, 142.46 135.67, 170.64 101.54 M118.67 169.21 C135.99 148.79, 154.6 125.54, 172.36 107.22 M117.81 169.37 C130.41 156.3, 142.34 141.04, 169.99 108.98 M122.93 169.61 C134.83 152.1, 151.5 137.77, 169.31 113.96 M121.59 169.46 C136.33 156.36, 148.66 139.94, 168.95 116.67 M135.41 158.81 C142.76 152.92, 147.99 143.95, 154.23 142.16 M135.27 161.24 C141.89 153.08, 148.51 147.64, 152.79 140.82" stroke="#ced4da" stroke-width="0.5" fill="none"></path><path d="M70.46 2.04 C81.16 -1.3, 95.4 -0.17, 107.09 2.59 C118.77 5.34, 131.05 11.49, 140.54 18.56 C150.03 25.63, 158.45 34.81, 164.04 44.99 C169.62 55.18, 173.09 67.89, 174.03 79.67 C174.98 91.45, 173.87 104.44, 169.72 115.69 C165.56 126.94, 157.44 138.43, 149.09 147.17 C140.74 155.91, 130.23 163.65, 119.62 168.12 C109.01 172.59, 97.17 174.33, 85.44 173.99 C73.72 173.64, 59.99 171, 49.26 166.06 C38.53 161.12, 28.62 153.52, 21.05 144.36 C13.48 135.2, 7.25 122.7, 3.83 111.1 C0.42 99.5, -0.87 86.46, 0.54 74.75 C1.95 63.04, 6.04 50.7, 12.31 40.82 C18.59 30.95, 27.12 22.11, 38.2 15.5 C49.27 8.89, 70.62 3.5, 78.76 1.17 C86.91 -1.16, 86.97 0.12, 87.07 1.51 M99.62 0.07 C110.65 0.75, 124.1 8.84, 134.05 15.31 C143.99 21.77, 152.58 29.21, 159.29 38.84 C166 48.46, 172.19 61.38, 174.29 73.06 C176.39 84.74, 175.05 97.25, 171.88 108.91 C168.71 120.57, 163 133.93, 155.27 143.02 C147.55 152.12, 136.21 158.49, 125.54 163.48 C114.86 168.47, 102.97 172.2, 91.23 172.96 C79.48 173.73, 65.94 172.44, 55.09 168.09 C44.24 163.74, 34.29 155.35, 26.11 146.87 C17.93 138.39, 10.13 127.93, 6.02 117.19 C1.91 106.45, 0.64 94.26, 1.47 82.42 C2.31 70.58, 5.93 56.83, 11.03 46.15 C16.13 35.46, 23.3 25.69, 32.08 18.3 C40.86 10.9, 52.47 4.53, 63.69 1.77 C74.91 -0.99, 93.39 1.79, 99.38 1.75 C105.38 1.72, 99.47 0.47, 99.67 1.58" stroke="#000000" stroke-width="1" fill="none"></path></g><g transform="translate(298.5958192444697 287.0854051209345) rotate(0 23.139976501464844 12)"><text x="23.139976501464844" y="0" font-family="Virgil, Segoe UI Emoji" font-size="20px" fill="#000000" text-anchor="middle" style="white-space: pre;" direction="ltr" dominant-baseline="text-before-edge">Code</text></g><g stroke-linecap="round" transform="translate(10 212.119140625) rotate(0 86.947265625 86.947265625)"><path d="M30.92 18.92 C30.92 18.92, 30.92 18.92, 30.92 18.92 M30.92 18.92 C30.92 18.92, 30.92 18.92, 30.92 18.92 M8.8 47.71 C20.32 35.08, 34.46 24.15, 39.05 14.94 M9.97 49 C17.97 40.06, 24.64 32.04, 39.78 14.16 M9.76 57.63 C21.17 42.04, 31.36 30.48, 49.49 10.93 M8.2 56.51 C23.76 39.27, 40.46 20.69, 49.85 9.03 M4.84 67.12 C24.65 45.68, 40.4 25.05, 60.8 4.04 M5.41 66.74 C27.37 42.56, 48.2 18.05, 59.05 5.78 M4.44 72.45 C29.03 45.83, 53.9 17.09, 67.17 4.45 M4.39 73.05 C24.71 51.64, 43.84 29.04, 65.64 2.84 M0.99 82.38 C23.95 58.68, 43.32 32.92, 72.78 3.14 M1.41 83.57 C20.74 60.82, 41.5 36.44, 71.77 3.76 M2.35 88.21 C17.62 66.49, 37.57 45.8, 77.92 2.67 M2.79 88.54 C19.54 67.86, 35.32 49.08, 75.91 2.13 M3.51 95.59 C34.85 57.99, 62.68 24.93, 83.9 2.06 M2.92 94.32 C25.68 67.42, 48.68 40.55, 82.99 1.79 M5.18 100.63 C36.29 63.52, 69.03 25.67, 89.78 0.53 M4.14 98.68 C36.16 63.02, 68.97 25.92, 87.49 2.69 M6.02 103.87 C29.67 76.43, 51.12 48.89, 94.57 0.38 M5.28 105.05 C28.12 74.41, 54.15 45.98, 92.84 1.04 M6.77 110.45 C28.06 81.36, 53.26 54.36, 97.34 3.98 M4.98 109.83 C28.88 81.46, 54.72 53.95, 97.87 2.5 M5.79 116.31 C43.97 69.87, 82.17 26.43, 101.38 2.42 M5.59 114.91 C30.85 84.52, 57.84 54.07, 102.21 4.06 M7.07 120.35 C37.24 84.32, 66.36 51.75, 106.98 3.69 M6.45 118.96 C37.72 86.71, 66.87 50.56, 107.38 4.43 M9.85 124.41 C38.85 88.38, 68.38 55.5, 112.31 5.18 M9.78 123.69 C32.78 94.12, 57.47 66.28, 110.95 5.76 M10.05 124.95 C31.57 101.31, 51.46 80.27, 113.48 6.03 M11.37 126.68 C51.86 84.05, 89.98 39.03, 114.85 8.22 M12.4 129.45 C47.19 93.8, 77.32 54.56, 118.79 10.66 M13.02 130.08 C41.59 97.89, 70.1 66.22, 118.94 8.72 M15.26 132.89 C46.67 97.65, 77.7 63.7, 122.1 11.61 M14.66 134.25 C46.09 99.19, 76.86 65.52, 122.65 12.02 M18.09 138.91 C57.88 90.59, 94.89 45.08, 127.71 14.05 M18.03 137.17 C41.87 110.15, 66.32 81.89, 127.11 12.4 M20.29 142.5 C55.31 100.21, 88.65 62.19, 129.18 14.22 M20.88 140.34 C50.68 105.22, 81.15 71.52, 130.31 14.34 M24.65 143.22 C67.52 92.31, 111.47 40.59, 137.41 15.54 M22.66 144.19 C51.32 112.29, 80.14 79.5, 136.4 13.89 M23.52 148.08 C58.13 111.1, 88.79 75.37, 136.23 19.41 M25.97 148.23 C61.63 103.19, 100.13 60.54, 137.62 17.62 M27.61 151.8 C57.09 115.26, 87.67 80.87, 142.39 20.29 M27.65 151.48 C63.11 109.02, 96.54 70.56, 141.51 20.96 M30.1 153.4 C54.36 127.19, 77.77 99.63, 143.18 22.7 M30.19 152.34 C64.42 115.04, 97.82 76.66, 144.86 23.43 M35.56 153.01 C66.33 115.65, 101.31 75.45, 147.18 26.9 M34.89 155.54 C58.61 127.32, 82.91 98.53, 145.73 25.48 M37.99 158.2 C78.51 108.01, 119.59 61.59, 151.06 30.81 M37.21 157.75 C72.02 116.62, 109.26 74.42, 148.51 28.71 M42.98 158.72 C76.78 113.92, 115.12 70.77, 150.45 32.7 M41.22 158.52 C65.16 133.01, 88.13 105.38, 152.08 31.72 M46.58 161.19 C78.51 122.3, 106.37 86.5, 154.7 33.16 M45.7 160.17 C66.99 132.9, 91.12 107.54, 154.87 34.31 M50.06 163 C76.98 129.61, 108.66 94.11, 155.7 38.99 M47.27 163.96 C90.56 114.22, 133.3 63.82, 156.96 38.6 M52.73 164.3 C79.72 135.41, 107.08 103.48, 160.69 39.93 M52.38 165.22 C85.98 126.78, 120.53 86.33, 161.15 39.96 M56.77 168.63 C88.63 131.3, 122.98 91.86, 160.49 45.31 M54.54 168.28 C82.98 133.97, 111.98 101.44, 162.45 44.92 M60.05 170.93 C89.09 133.46, 122.13 98.15, 165.47 48.51 M58.31 169.63 C82.29 145.16, 102.83 120.28, 164.43 47.81 M64.2 169.87 C96.88 135.02, 125.5 96.95, 164.53 53.64 M63.72 170.54 C86.99 144.85, 108.5 120.17, 165.34 52.65 M68.9 171.92 C106.66 128.78, 143.13 84.36, 167.17 58.23 M67.85 172.27 C89.04 145.94, 111.22 121.57, 166.59 56.1 M73.23 173.68 C99.61 140.36, 123.5 112.33, 170.29 59.43 M72.38 172.69 C93.94 148.33, 115.08 122.69, 168.75 60.84 M75.18 171.87 C112.09 133.75, 150.45 92.41, 171.06 66.16 M76.49 173.43 C106.2 142.05, 134.42 108.75, 170.73 65.99 M82.52 173.76 C98.78 151.88, 118.63 131.13, 173.68 69.36 M81.93 174.57 C115.39 136.21, 146.38 98.52, 171.82 68.49 M87.53 174.85 C118.48 137.43, 151.8 100.47, 174.22 74.09 M85.06 175.53 C117.08 140.8, 147.99 103.99, 174.82 73.54 M89.86 177.28 C114.9 150.7, 136.49 124.07, 172.79 80.84 M89.99 175.69 C112.75 148.78, 136.13 122.06, 173.46 80.99 M93.35 178.35 C115.84 154.39, 134.11 127.82, 174.9 87.81 M94.69 176.12 C121.66 148.41, 146.04 120.01, 174.09 85.96 M101.43 175.11 C123.93 149.57, 144.57 123.95, 172.41 92.48 M102.66 174.4 C124.4 147.99, 146.41 122.58, 173.86 93.57 M110.08 173.85 C124.84 154.89, 136.29 141.41, 172.97 98.5 M109.17 171.36 C127.01 153.22, 145.17 131.98, 172.46 100.04 M118.55 171.57 C129.81 157.76, 138.42 145.48, 174.13 106.61 M116.26 170.7 C128.78 157.41, 141.38 142.51, 171.55 106.88 M129.4 164.06 C139.28 152.25, 148.93 138.53, 174.16 108.6 M128.08 164.35 C143.5 147.02, 158.65 129.3, 173.8 111 M144.84 151.93 C153.87 141.23, 158.9 133.53, 167.75 126.82 M143.47 150.69 C149.43 146.11, 153.03 140.22, 165.9 125.5" stroke="#ced4da" stroke-width="0.5" fill="none"></path><path d="M100.1 0.6 C111.53 1.13, 124.69 7.52, 134.52 13.97 C144.35 20.42, 152.61 29.46, 159.07 39.31 C165.52 49.15, 171.19 61.46, 173.27 73.03 C175.36 84.59, 174.55 97.23, 171.56 108.7 C168.56 120.17, 162.63 132.67, 155.3 141.84 C147.96 151.02, 138.06 158.34, 127.54 163.75 C117.03 169.15, 104.13 173.69, 92.2 174.27 C80.27 174.86, 67.17 171.54, 55.95 167.26 C44.73 162.99, 33.18 156.69, 24.89 148.65 C16.61 140.61, 10.21 129.99, 6.23 119.03 C2.26 108.08, 0.68 94.66, 1.05 82.91 C1.43 71.17, 3.45 59.25, 8.47 48.54 C13.49 37.83, 21.84 26.37, 31.16 18.64 C40.48 10.91, 51.71 4.84, 64.38 2.15 C77.05 -0.54, 99.06 1.99, 107.18 2.5 C115.3 3.01, 113.52 3.9, 113.09 5.21 M49.96 8.34 C59.55 2.1, 72.81 -0.25, 84.57 -0.64 C96.34 -1.04, 109.54 1.73, 120.54 5.98 C131.54 10.23, 142.76 16.21, 150.58 24.84 C158.39 33.47, 163.36 46.25, 167.46 57.76 C171.55 69.28, 175.55 82.41, 175.13 93.94 C174.71 105.47, 170.63 116.71, 164.93 126.94 C159.24 137.17, 150.54 148.18, 140.94 155.33 C131.35 162.47, 118.85 167.09, 107.34 169.8 C95.83 172.51, 83.34 173.39, 71.89 171.61 C60.44 169.82, 48.29 165.47, 38.65 159.08 C29.01 152.69, 20.57 143.34, 14.06 133.26 C7.56 123.19, 1.25 110.03, -0.38 98.61 C-2.02 87.2, 0.91 75.93, 4.27 64.77 C7.62 53.61, 12.33 40.95, 19.74 31.63 C27.16 22.31, 43.73 12.22, 48.77 8.86 C53.81 5.5, 49.2 10.1, 49.99 11.45" stroke="#000000" stroke-width="1" fill="none"></path></g><g transform="translate(52.67630172737984 287.0854051209345) rotate(0 44.28996276855469 12)"><text x="44.28996276855469" y="0" font-family="Virgil, Segoe UI Emoji" font-size="20px" fill="#000000" text-anchor="middle" style="white-space: pre;" direction="ltr" dominant-baseline="text-before-edge">Refactor</text></g><g stroke-linecap="round"><g transform="translate(256.279296875 175.435546875) rotate(0 11.145588818564988 20.279657826647167)"><path d="M0.53 0.36 C4.05 7.13, 17.27 33.06, 20.73 39.45 M-0.65 -0.49 C3.27 6.6, 19.46 34.36, 22.94 41.05" stroke="#000000" stroke-width="1" fill="none"></path></g><g transform="translate(256.279296875 175.435546875) rotate(0 11.145588818564988 20.279657826647167)"><path d="M6.58 24.78 C10.6 29.53, 13.87 34.89, 22.35 42.24 M5.32 26.81 C10.6 30.73, 16.62 36.33, 23.02 41.49" stroke="#000000" stroke-width="1" fill="none"></path></g><g transform="translate(256.279296875 175.435546875) rotate(0 11.145588818564988 20.279657826647167)"><path d="M19.99 17.31 C20.34 24.13, 20 31.5, 22.35 42.24 M18.74 19.34 C19.53 25.65, 21.15 33.71, 23.02 41.49" stroke="#000000" stroke-width="1" fill="none"></path></g></g><mask></mask><g stroke-linecap="round"><g transform="translate(226.861328125 307.40588904835283) rotate(0 -17.101907785264757 -0.014349347558550107)"><path d="M-0.24 -1.18 C-6.27 -1.34, -30.11 -0.61, -36.03 -0.31 M1.83 0.82 C-3.8 0.78, -27.22 1.43, -33.65 1.06" stroke="#000000" stroke-width="1" fill="none"></path></g><g transform="translate(226.861328125 307.40588904835283) rotate(0 -17.101907785264757 -0.014349347558550107)"><path d="M-18.69 -5.74 C-22.52 -3.58, -26.3 -1.15, -32.57 0.99 M-16.1 -4.51 C-23.58 -2.25, -29.25 -1.35, -33.09 0.62" stroke="#000000" stroke-width="1" fill="none"></path></g><g transform="translate(226.861328125 307.40588904835283) rotate(0 -17.101907785264757 -0.014349347558550107)"><path d="M-18.82 6.37 C-22.68 4.8, -26.41 3.5, -32.57 0.99 M-16.23 7.6 C-23.72 5.66, -29.34 2.35, -33.09 0.62" stroke="#000000" stroke-width="1" fill="none"></path></g></g><mask></mask><g stroke-linecap="round"><g transform="translate(128.08375984816155 209.1445968595849) rotate(0 8.753673646165623 -14.822175979935963)"><path d="M0.85 -0.31 C3.68 -5.2, 15 -24.61, 17.66 -29.34 M-0.16 -1.51 C2.52 -6.22, 14.46 -23.03, 17.16 -27.91" stroke="#000000" stroke-width="1" fill="none"></path></g><g transform="translate(128.08375984816155 209.1445968595849) rotate(0 8.753673646165623 -14.822175979935963)"><path d="M13.1 -10.3 C14.55 -17.45, 16.8 -22.1, 15.56 -28.5 M13.56 -10.75 C15.37 -17.92, 16.29 -23.26, 17.42 -27.31" stroke="#000000" stroke-width="1" fill="none"></path></g><g transform="translate(128.08375984816155 209.1445968595849) rotate(0 8.753673646165623 -14.822175979935963)"><path d="M3.4 -16.48 C8.35 -21.46, 14.12 -23.88, 15.56 -28.5 M3.85 -16.93 C9.31 -21.83, 13.85 -24.87, 17.42 -27.31" stroke="#000000" stroke-width="1" fill="none"></path></g></g><mask></mask><g transform="translate(67.7578125 414.244873046875) rotate(0 155.38986206054688 12)"><text x="0" y="0" font-family="Virgil, Segoe UI Emoji" font-size="20px" fill="#000000" text-anchor="start" style="white-space: pre;" direction="ltr" dominant-baseline="text-before-edge">Test driven development (TDD)</text></g></svg>